<mxfile host="app.diagrams.net" modified="2022-04-18T06:07:16.895Z" agent="5.0 (Macintosh)" etag="IQ8WHbu9ySy1Xkj41RHq" version="17.4.3" type="github">
  <diagram id="prtHgNgQTEPvFCAcTncT" name="Page-1">
    <mxGraphModel dx="1133" dy="737" grid="1" gridSize="10" guides="1" tooltips="1" connect="1" arrows="1" fold="1" page="1" pageScale="1" pageWidth="827" pageHeight="1169" background="#F1FAEE" math="0" shadow="0">
      <root>
        <mxCell id="0" />
        <mxCell id="1" parent="0" />
        <mxCell id="hWKJte8JxfMJV44TxGRM-3" value="" style="edgeStyle=orthogonalEdgeStyle;rounded=0;orthogonalLoop=1;jettySize=auto;html=1;strokeWidth=2;" edge="1" parent="1" source="hWKJte8JxfMJV44TxGRM-1" target="hWKJte8JxfMJV44TxGRM-2">
          <mxGeometry relative="1" as="geometry" />
        </mxCell>
        <mxCell id="hWKJte8JxfMJV44TxGRM-4" value="关联关系" style="edgeLabel;html=1;align=center;verticalAlign=middle;resizable=0;points=[];fontStyle=1" vertex="1" connectable="0" parent="hWKJte8JxfMJV44TxGRM-3">
          <mxGeometry x="-0.0545" y="2" relative="1" as="geometry">
            <mxPoint as="offset" />
          </mxGeometry>
        </mxCell>
        <mxCell id="hWKJte8JxfMJV44TxGRM-1" value="用户" style="shape=umlActor;verticalLabelPosition=bottom;verticalAlign=top;html=1;strokeWidth=2;" vertex="1" parent="1">
          <mxGeometry x="250" y="125" width="30" height="60" as="geometry" />
        </mxCell>
        <mxCell id="hWKJte8JxfMJV44TxGRM-2" value="登录" style="ellipse;whiteSpace=wrap;html=1;strokeWidth=2;" vertex="1" parent="1">
          <mxGeometry x="390" y="120" width="140" height="70" as="geometry" />
        </mxCell>
      </root>
    </mxGraphModel>
  </diagram>
</mxfile>
